<svg width="448" height="128" viewBox="0 0 448 128" fill="none" xmlns="http://www.w3.org/2000/svg">
<rect x="0.5" y="0.5" width="447" height="127" rx="4.5" stroke="#9747FF" stroke-dasharray="10 5"/>
<mask id="mask0_418_853" style="mask-type:luminance" maskUnits="userSpaceOnUse" x="22" y="22" width="20" height="20">
<path fill-rule="evenodd" clip-rule="evenodd" d="M22 22H41.4768V41.477H22V22Z" fill="white"/>
</mask>
<g mask="url(#mask0_418_853)">
<path fill-rule="evenodd" clip-rule="evenodd" d="M31.7388 23.5C27.1958 23.5 23.4998 27.195 23.4998 31.738C23.4998 36.281 27.1958 39.977 31.7388 39.977C36.2808 39.977 39.9768 36.281 39.9768 31.738C39.9768 27.195 36.2808 23.5 31.7388 23.5ZM31.7388 41.477C26.3688 41.477 21.9998 37.108 21.9998 31.738C21.9998 26.368 26.3688 22 31.7388 22C37.1088 22 41.4768 26.368 41.4768 31.738C41.4768 37.108 37.1088 41.477 31.7388 41.477Z" fill="black"/>
</g>
<mask id="mask1_418_853" style="mask-type:luminance" maskUnits="userSpaceOnUse" x="37" y="37" width="6" height="6">
<path fill-rule="evenodd" clip-rule="evenodd" d="M37.2399 37.7069H42.264V42.7217H37.2399V37.7069Z" fill="white"/>
</mask>
<g mask="url(#mask1_418_853)">
<path fill-rule="evenodd" clip-rule="evenodd" d="M41.5142 42.7217C41.3232 42.7217 41.1312 42.6487 40.9842 42.5027L37.4602 38.9887C37.1672 38.6957 37.1662 38.2207 37.4592 37.9277C37.7512 37.6327 38.2262 37.6347 38.5202 37.9257L42.0442 41.4407C42.3372 41.7337 42.3382 42.2077 42.0452 42.5007C41.8992 42.6487 41.7062 42.7217 41.5142 42.7217Z" fill="black"/>
</g>
<mask id="mask2_418_853" style="mask-type:luminance" maskUnits="userSpaceOnUse" x="86" y="21" width="21" height="22">
<path fill-rule="evenodd" clip-rule="evenodd" d="M86 21.0002H106.5V42.5052H86V21.0002Z" fill="white"/>
</mask>
<g mask="url(#mask2_418_853)">
<path fill-rule="evenodd" clip-rule="evenodd" d="M97.7168 35.2913C98.9208 35.2913 99.9008 36.2643 99.9008 37.4603V40.5363C99.9008 40.7933 100.107 40.9993 100.371 41.0053H102.277C103.779 41.0053 105 39.7993 105 38.3173V29.5933C104.993 29.0833 104.75 28.6033 104.333 28.2843L97.7398 23.0263C96.8548 22.3253 95.6168 22.3253 94.7288 23.0283L88.1808 28.2823C87.7478 28.6113 87.5048 29.0913 87.4998 29.6103V38.3173C87.4998 39.7993 88.7208 41.0053 90.2228 41.0053H92.1468C92.4178 41.0053 92.6378 40.7903 92.6378 40.5263C92.6378 40.4683 92.6448 40.4103 92.6568 40.3553V37.4603C92.6568 36.2713 93.6308 35.2993 94.8258 35.2913H97.7168ZM102.277 42.5053H100.353C99.2508 42.4793 98.4008 41.6143 98.4008 40.5363V37.4603C98.4008 37.0913 98.0938 36.7913 97.7168 36.7913H94.8308C94.4618 36.7933 94.1568 37.0943 94.1568 37.4603V40.5263C94.1568 40.6013 94.1468 40.6733 94.1258 40.7413C94.0178 41.7313 93.1718 42.5053 92.1468 42.5053H90.2228C87.8938 42.5053 85.9998 40.6263 85.9998 38.3173V29.6033C86.0098 28.6093 86.4678 27.6993 87.2588 27.1003L93.7938 21.8553C95.2328 20.7153 97.2378 20.7153 98.6738 21.8533L105.256 27.1033C106.029 27.6923 106.487 28.6003 106.5 29.5823V38.3173C106.5 40.6263 104.606 42.5053 102.277 42.5053Z" fill="black"/>
</g>
<mask id="mask3_418_853" style="mask-type:luminance" maskUnits="userSpaceOnUse" x="151" y="21" width="19" height="18">
<path fill-rule="evenodd" clip-rule="evenodd" d="M151 21H169.497V38.348H151V21Z" fill="white"/>
</mask>
<g mask="url(#mask3_418_853)">
<path fill-rule="evenodd" clip-rule="evenodd" d="M160.247 22.5C156.752 22.5 154.316 25.238 154.316 27.695C154.316 29.774 153.739 30.735 153.229 31.583C152.82 32.264 152.497 32.802 152.497 33.971C152.664 35.857 153.909 36.848 160.247 36.848C166.55 36.848 167.834 35.813 168 33.906C167.997 32.802 167.674 32.264 167.265 31.583C166.755 30.735 166.178 29.774 166.178 27.695C166.178 25.238 163.742 22.5 160.247 22.5ZM160.247 38.348C155.571 38.348 151.345 38.018 151 34.035C150.997 32.387 151.5 31.549 151.944 30.811C152.393 30.063 152.816 29.358 152.816 27.695C152.816 24.462 155.802 21 160.247 21C164.692 21 167.678 24.462 167.678 27.695C167.678 29.358 168.101 30.063 168.55 30.811C168.994 31.549 169.497 32.387 169.497 33.971C169.148 38.018 164.923 38.348 160.247 38.348Z" fill="black"/>
</g>
<path fill-rule="evenodd" clip-rule="evenodd" d="M160.198 42.5H160.196C159.075 42.499 158.014 42.005 157.209 41.108C156.932 40.801 156.957 40.326 157.265 40.05C157.573 39.772 158.047 39.797 158.324 40.106C158.842 40.683 159.507 41 160.197 41H160.198C160.891 41 161.559 40.683 162.078 40.105C162.356 39.798 162.83 39.773 163.137 40.05C163.445 40.327 163.47 40.802 163.193 41.109C162.385 42.006 161.322 42.5 160.198 42.5Z" fill="black"/>
<mask id="mask4_418_853" style="mask-type:luminance" maskUnits="userSpaceOnUse" x="278" y="23" width="21" height="20">
<path fill-rule="evenodd" clip-rule="evenodd" d="M278 22.9999H298.473V42.5009H278V22.9999Z" fill="white"/>
</mask>
<g mask="url(#mask4_418_853)">
<path fill-rule="evenodd" clip-rule="evenodd" d="M279.824 32.123C281.226 36.485 286.765 40.012 288.237 40.885C289.714 40.003 295.293 36.437 296.65 32.127C297.541 29.341 296.714 25.812 293.428 24.753C291.836 24.242 289.979 24.553 288.697 25.545C288.429 25.751 288.057 25.755 287.787 25.551C286.429 24.53 284.655 24.231 283.038 24.753C279.757 25.811 278.933 29.34 279.824 32.123ZM288.238 42.501C288.114 42.501 287.991 42.471 287.879 42.41C287.566 42.239 280.193 38.175 278.396 32.581C278.395 32.581 278.395 32.58 278.395 32.58C277.267 29.058 278.523 24.632 282.578 23.325C284.482 22.709 286.557 22.98 288.235 24.039C289.861 23.011 292.021 22.727 293.887 23.325C297.946 24.634 299.206 29.059 298.079 32.58C296.34 38.11 288.913 42.235 288.598 42.408C288.486 42.47 288.362 42.501 288.238 42.501Z" fill="black"/>
</g>
<path fill-rule="evenodd" clip-rule="evenodd" d="M294.154 30.6249C293.767 30.6249 293.439 30.3279 293.407 29.9359C293.341 29.1139 292.791 28.4199 292.008 28.1669C291.613 28.0389 291.397 27.6159 291.524 27.2229C291.653 26.8289 292.072 26.6149 292.468 26.7389C293.831 27.1799 294.786 28.3869 294.903 29.8139C294.936 30.2269 294.629 30.5889 294.216 30.6219C294.195 30.6239 294.175 30.6249 294.154 30.6249Z" fill="black"/>
<path fill-rule="evenodd" clip-rule="evenodd" d="M30.0801 102.593H23.7791C23.3651 102.593 23.0291 102.257 23.0291 101.843C23.0291 101.429 23.3651 101.093 23.7791 101.093H30.0801C30.4941 101.093 30.8301 101.429 30.8301 101.843C30.8301 102.257 30.4941 102.593 30.0801 102.593Z" fill="black"/>
<path fill-rule="evenodd" clip-rule="evenodd" d="M39.1909 92.9005H32.8909C32.4769 92.9005 32.1409 92.5645 32.1409 92.1505C32.1409 91.7365 32.4769 91.4005 32.8909 91.4005H39.1909C39.6049 91.4005 39.9409 91.7365 39.9409 92.1505C39.9409 92.5645 39.6049 92.9005 39.1909 92.9005Z" fill="black"/>
<mask id="mask5_418_853" style="mask-type:luminance" maskUnits="userSpaceOnUse" x="23" y="89" width="7" height="7">
<path fill-rule="evenodd" clip-rule="evenodd" d="M23 89.0004H29.2258V95.192H23V89.0004Z" fill="white"/>
</mask>
<g mask="url(#mask5_418_853)">
<path fill-rule="evenodd" clip-rule="evenodd" d="M26.1128 90.5C25.2238 90.5 24.4998 91.216 24.4998 92.097C24.4998 92.977 25.2238 93.692 26.1128 93.692C27.0028 93.692 27.7258 92.977 27.7258 92.097C27.7258 91.216 27.0028 90.5 26.1128 90.5ZM26.1128 95.192C24.3968 95.192 22.9998 93.804 22.9998 92.097C22.9998 90.39 24.3968 89 26.1128 89C27.8298 89 29.2258 90.39 29.2258 92.097C29.2258 93.804 27.8298 95.192 26.1128 95.192Z" fill="black"/>
</g>
<path fill-rule="evenodd" clip-rule="evenodd" d="M37.3877 100.208C36.4977 100.208 35.7737 100.924 35.7737 101.804C35.7737 102.685 36.4977 103.4 37.3877 103.4C38.2767 103.4 38.9997 102.685 38.9997 101.804C38.9997 100.924 38.2767 100.208 37.3877 100.208ZM37.3877 104.9C35.6707 104.9 34.2737 103.511 34.2737 101.804C34.2737 100.097 35.6707 98.708 37.3877 98.708C39.1037 98.708 40.4997 100.097 40.4997 101.804C40.4997 103.511 39.1037 104.9 37.3877 104.9Z" fill="black"/>
<path fill-rule="evenodd" clip-rule="evenodd" d="M416 23.5C411.313 23.5 407.5 27.313 407.5 32C407.5 36.687 411.313 40.5 416 40.5C420.687 40.5 424.5 36.687 424.5 32C424.5 27.313 420.687 23.5 416 23.5ZM416 42C410.486 42 406 37.514 406 32C406 26.486 410.486 22 416 22C421.514 22 426 26.486 426 32C426 37.514 421.514 42 416 42Z" fill="black"/>
<path fill-rule="evenodd" clip-rule="evenodd" d="M419.948 33.0137C419.395 33.0137 418.943 32.5667 418.943 32.0137C418.943 31.4607 419.386 31.0137 419.938 31.0137H419.948C420.501 31.0137 420.948 31.4607 420.948 32.0137C420.948 32.5667 420.501 33.0137 419.948 33.0137Z" fill="black"/>
<path fill-rule="evenodd" clip-rule="evenodd" d="M415.939 33.0137C415.386 33.0137 414.935 32.5667 414.935 32.0137C414.935 31.4607 415.377 31.0137 415.93 31.0137H415.939C416.492 31.0137 416.939 31.4607 416.939 32.0137C416.939 32.5667 416.492 33.0137 415.939 33.0137Z" fill="black"/>
<path fill-rule="evenodd" clip-rule="evenodd" d="M411.93 33.0137C411.377 33.0137 410.925 32.5667 410.925 32.0137C410.925 31.4607 411.368 31.0137 411.921 31.0137H411.93C412.483 31.0137 412.93 31.4607 412.93 32.0137C412.93 32.5667 412.483 33.0137 411.93 33.0137Z" fill="black"/>
<mask id="mask6_418_853" style="mask-type:luminance" maskUnits="userSpaceOnUse" x="150" y="86" width="21" height="21">
<path fill-rule="evenodd" clip-rule="evenodd" d="M150 86.0002H170.003V106.001H150V86.0002Z" fill="white"/>
</mask>
<g mask="url(#mask6_418_853)">
<path fill-rule="evenodd" clip-rule="evenodd" d="M158.945 104.076C159.535 104.652 160.485 104.645 161.071 104.056L161.793 103.336C162.353 102.777 163.127 102.458 163.916 102.458H164.946C165.78 102.458 166.458 101.78 166.458 100.947V99.9175C166.458 99.1165 166.768 98.3635 167.334 97.7965L168.054 97.0755C168.347 96.7815 168.504 96.4005 168.503 95.9965C168.502 95.5935 168.343 95.2145 168.056 94.9285L167.335 94.2065C166.768 93.6355 166.458 92.8835 166.458 92.0825V91.0555C166.458 90.2215 165.78 89.5435 164.946 89.5435H163.918C163.117 89.5435 162.364 89.2325 161.797 88.6695L161.075 87.9465C160.474 87.3515 159.515 87.3545 158.928 87.9455L158.209 88.6665C157.635 89.2335 156.882 89.5435 156.084 89.5435H155.055C154.222 89.5445 153.544 90.2225 153.544 91.0555V92.0805C153.544 92.8815 153.233 93.6345 152.669 94.2025L151.959 94.9135C151.952 94.9215 151.945 94.9275 151.938 94.9345C151.351 95.5255 151.354 96.4845 151.945 97.0715L152.667 97.7935C153.233 98.3615 153.544 99.1145 153.544 99.9155V100.947C153.544 101.78 154.221 102.458 155.055 102.458H156.082C156.884 102.459 157.637 102.77 158.204 103.335L158.925 104.054C158.931 104.061 158.938 104.068 158.945 104.076ZM159.999 106.002C159.232 106.002 158.465 105.712 157.878 105.13C157.87 105.122 157.862 105.114 157.854 105.105L157.144 104.396C156.861 104.115 156.483 103.959 156.081 103.958H155.055C153.394 103.958 152.044 102.607 152.044 100.947V99.9155C152.044 99.5135 151.887 99.1365 151.605 98.8525L150.886 98.1345C149.718 96.9725 149.704 95.0805 150.851 93.9005C150.86 93.8915 150.869 93.8825 150.878 93.8735L151.606 93.1435C151.887 92.8605 152.044 92.4815 152.044 92.0805V91.0555C152.044 89.3955 153.394 88.0445 155.054 88.0435H156.084C156.485 88.0435 156.863 87.8865 157.15 87.6035L157.865 86.8865C159.034 85.7095 160.945 85.7035 162.124 86.8755L162.855 87.6065C163.138 87.8875 163.516 88.0435 163.918 88.0435H164.946C166.607 88.0435 167.958 89.3945 167.958 91.0555V92.0825C167.958 92.4835 168.114 92.8625 168.397 93.1475L169.115 93.8665C169.684 94.4315 170 95.1865 170.003 95.9915C170.006 96.7965 169.695 97.5535 169.128 98.1245L168.395 98.8555C168.114 99.1385 167.958 99.5155 167.958 99.9175V100.947C167.958 102.607 166.607 103.958 164.947 103.958H163.916C163.52 103.958 163.133 104.118 162.852 104.397L162.134 105.115C161.547 105.706 160.773 106.002 159.999 106.002Z" fill="black"/>
</g>
<path fill-rule="evenodd" clip-rule="evenodd" d="M157.43 99.3215C157.238 99.3215 157.046 99.2485 156.9 99.1015C156.607 98.8085 156.607 98.3345 156.9 98.0415L162.04 92.9005C162.333 92.6075 162.808 92.6075 163.101 92.9005C163.394 93.1935 163.394 93.6685 163.101 93.9615L157.96 99.1015C157.814 99.2485 157.622 99.3215 157.43 99.3215Z" fill="black"/>
<path fill-rule="evenodd" clip-rule="evenodd" d="M162.504 99.4992C161.951 99.4992 161.499 99.0522 161.499 98.4992C161.499 97.9462 161.942 97.4992 162.495 97.4992H162.504C163.057 97.4992 163.504 97.9462 163.504 98.4992C163.504 99.0522 163.057 99.4992 162.504 99.4992Z" fill="black"/>
<path fill-rule="evenodd" clip-rule="evenodd" d="M157.504 94.4992C156.951 94.4992 156.499 94.0522 156.499 93.4992C156.499 92.9462 156.942 92.4992 157.495 92.4992H157.504C158.057 92.4992 158.504 92.9462 158.504 93.4992C158.504 94.0522 158.057 94.4992 157.504 94.4992Z" fill="black"/>
<mask id="mask7_418_853" style="mask-type:luminance" maskUnits="userSpaceOnUse" x="98" y="86" width="9" height="9">
<path fill-rule="evenodd" clip-rule="evenodd" d="M98.354 86.0003H106.893V94.5331H98.354V86.0003Z" fill="white"/>
</mask>
<g mask="url(#mask7_418_853)">
<path fill-rule="evenodd" clip-rule="evenodd" d="M106.143 94.5331C105.766 94.5331 105.442 94.2501 105.399 93.8671C105.02 90.4911 102.398 87.8711 99.0207 87.4961C98.6097 87.4501 98.3127 87.0801 98.3587 86.6681C98.4037 86.2571 98.7707 85.9541 99.1867 86.0061C103.265 86.4591 106.432 89.6221 106.889 93.6991C106.935 94.1111 106.639 94.4821 106.228 94.5281C106.2 94.5311 106.171 94.5331 106.143 94.5331Z" fill="black"/>
</g>
<path fill-rule="evenodd" clip-rule="evenodd" d="M102.603 94.5439C102.251 94.5439 101.938 94.2959 101.868 93.9379C101.58 92.4579 100.439 91.3169 98.9606 91.0299C98.5536 90.9509 98.2886 90.5579 98.3676 90.1509C98.4466 89.7439 98.8466 89.4779 99.2466 89.5579C101.328 89.9619 102.935 91.5679 103.34 93.6499C103.419 94.0579 103.154 94.4509 102.748 94.5299C102.699 94.5389 102.651 94.5439 102.603 94.5439Z" fill="black"/>
<path fill-rule="evenodd" clip-rule="evenodd" d="M87.2887 88.0879L87.3613 88.012C89.2887 86.0844 90.5438 85.5735 91.8831 86.3436C92.2683 86.5651 92.6295 86.8752 93.1205 87.374L94.6269 88.936C95.4589 89.8439 95.6481 90.7148 95.3772 91.7347L95.3398 91.8697L95.2984 92.0039L95.097 92.5947C94.666 93.9197 94.846 94.6673 96.3795 96.2004C97.9742 97.7947 98.7186 97.9251 100.146 97.4264L100.4 97.338L100.708 97.2381L100.842 97.2007C101.926 96.9115 102.842 97.1423 103.813 98.1128L105.027 99.2852L105.384 99.6366C105.78 100.041 106.042 100.361 106.236 100.699C107.001 102.038 106.489 103.292 104.506 105.268L104.318 105.459C104.022 105.744 103.745 105.949 103.339 106.142C102.656 106.465 101.851 106.588 100.914 106.457C98.6067 106.136 95.6802 104.316 91.9719 100.608C91.67 100.307 91.3809 100.011 91.1042 99.7205L90.5675 99.1476C85.5376 93.6828 85.0939 90.3259 87.1552 88.2205L87.2887 88.0879ZM91.9064 88.2809C91.5806 87.9597 91.344 87.7639 91.1353 87.644C90.6738 87.3786 90.1755 87.4907 89.2533 88.2845L88.9635 88.5433C88.913 88.59 88.8613 88.6384 88.8084 88.6887L88.4761 89.0123L88.4462 89.0497L88.2209 89.276C87.6766 89.832 87.4187 90.5106 87.6409 91.6777C88.0055 93.5927 89.6744 96.1905 93.0324 99.5477C96.5313 103.046 99.1972 104.704 101.121 104.972C102.242 105.128 102.814 104.856 103.398 104.258L103.842 103.809C104.051 103.591 104.229 103.393 104.38 103.213L104.585 102.954C105.11 102.255 105.158 101.836 104.933 101.443C104.848 101.294 104.724 101.13 104.543 100.93L104.298 100.671L104.153 100.526L102.621 99.0472C102.11 98.5753 101.76 98.5084 101.229 98.65L101.076 98.6941L100.441 98.9094C98.6013 99.5037 97.2738 99.2155 95.3189 97.2612C93.2943 95.237 93.0568 93.8854 93.7352 91.9392L93.7787 91.8141L93.8991 91.4515L93.9582 91.2204C94.0631 90.7175 93.9434 90.3668 93.4027 89.826C93.3804 89.8037 93.3555 89.7787 93.3285 89.7512L91.9064 88.2809Z" fill="black"/>
<mask id="mask8_418_853" style="mask-type:luminance" maskUnits="userSpaceOnUse" x="342" y="26" width="20" height="17">
<path fill-rule="evenodd" clip-rule="evenodd" d="M342 26.5401H361.586V42.7217H342V26.5401Z" fill="white"/>
</mask>
<g mask="url(#mask8_418_853)">
<path fill-rule="evenodd" clip-rule="evenodd" d="M346.716 28.0401C346.275 28.0401 344.801 28.2181 344.378 30.5021L343.606 36.5021C343.355 38.1851 343.549 39.4031 344.184 40.1401C344.811 40.8681 345.933 41.2221 347.613 41.2221H355.96C357.009 41.2221 358.44 41.0131 359.304 40.0151C359.99 39.2241 360.226 38.0461 360.006 36.5131L359.226 30.4611C358.895 28.9701 358.018 28.0401 356.894 28.0401H346.716ZM355.961 42.7221H347.613C345.47 42.7221 343.977 42.1971 343.048 41.1181C342.115 40.0361 341.803 38.4131 342.121 36.2951L342.897 30.2691C343.407 27.5061 345.272 26.5401 346.716 26.5401H356.895C358.345 26.5401 360.108 27.5031 360.702 30.2041L361.492 36.3111C361.774 38.2821 361.42 39.8631 360.438 40.9971C359.459 42.1251 357.912 42.7221 355.961 42.7221Z" fill="black"/>
</g>
<path fill-rule="evenodd" clip-rule="evenodd" d="M356.098 27.8203C355.684 27.8203 355.348 27.4843 355.348 27.0703C355.348 25.1013 353.746 23.5003 351.778 23.5003H351.763C350.822 23.5003 349.905 23.8793 349.24 24.5403C348.572 25.2053 348.189 26.1283 348.189 27.0703C348.189 27.4843 347.853 27.8203 347.439 27.8203C347.025 27.8203 346.689 27.4843 346.689 27.0703C346.689 25.7313 347.233 24.4223 348.181 23.4773C349.126 22.5383 350.429 22.0003 351.76 22.0003H351.781C354.574 22.0003 356.848 24.2743 356.848 27.0703C356.848 27.4843 356.512 27.8203 356.098 27.8203Z" fill="black"/>
<path fill-rule="evenodd" clip-rule="evenodd" d="M354.743 32.3242H354.697C354.283 32.3242 353.947 31.9882 353.947 31.5742C353.947 31.1602 354.283 30.8242 354.697 30.8242C355.111 30.8242 355.47 31.1602 355.47 31.5742C355.47 31.9882 355.157 32.3242 354.743 32.3242Z" fill="black"/>
<path fill-rule="evenodd" clip-rule="evenodd" d="M348.912 32.3242H348.867C348.453 32.3242 348.117 31.9882 348.117 31.5742C348.117 31.1602 348.453 30.8242 348.867 30.8242C349.281 30.8242 349.64 31.1602 349.64 31.5742C349.64 31.9882 349.326 32.3242 348.912 32.3242Z" fill="black"/>
<path fill-rule="evenodd" clip-rule="evenodd" d="M415.75 88.5C415.659 88.5 415.435 88.525 415.316 88.763L413.49 92.414C413.201 92.991 412.644 93.392 412 93.484L407.912 94.073C407.642 94.112 407.55 94.312 407.522 94.396C407.497 94.477 407.457 94.683 407.643 94.861L410.599 97.701C411.07 98.154 411.284 98.807 411.172 99.446L410.476 103.456C410.433 103.707 410.59 103.853 410.66 103.903C410.734 103.959 410.932 104.07 411.177 103.942L414.832 102.047C415.408 101.75 416.094 101.75 416.668 102.047L420.322 103.941C420.568 104.068 420.766 103.957 420.841 103.903C420.911 103.853 421.068 103.707 421.025 103.456L420.327 99.446C420.215 98.807 420.429 98.154 420.9 97.701L423.856 94.861C424.043 94.683 424.003 94.476 423.977 94.396C423.95 94.312 423.858 94.112 423.588 94.073L419.5 93.484C418.857 93.392 418.3 92.991 418.011 92.413L416.183 88.763C416.065 88.525 415.841 88.5 415.75 88.5ZM410.947 105.5C410.534 105.5 410.124 105.37 409.773 105.114C409.167 104.67 408.87 103.937 408.999 103.199L409.695 99.189C409.721 99.04 409.67 98.889 409.56 98.783L406.604 95.943C406.06 95.422 405.865 94.652 406.095 93.937C406.327 93.214 406.941 92.697 407.698 92.589L411.786 92C411.944 91.978 412.08 91.881 412.148 91.743L413.975 88.091C414.312 87.418 414.992 87 415.75 87C416.508 87 417.188 87.418 417.525 88.091L419.353 91.742C419.422 91.881 419.557 91.978 419.714 92L423.802 92.589C424.559 92.697 425.173 93.214 425.405 93.937C425.635 94.652 425.439 95.422 424.895 95.943L421.939 98.783C421.829 98.889 421.779 99.04 421.805 99.188L422.502 103.199C422.63 103.938 422.333 104.671 421.726 105.114C421.111 105.565 420.31 105.626 419.631 105.272L415.978 103.379C415.835 103.305 415.664 103.305 415.521 103.379L411.868 105.273C411.576 105.425 411.261 105.5 410.947 105.5Z" fill="black"/>
<path d="M347.97 103.53C347.703 103.264 347.679 102.847 347.897 102.554L347.97 102.47L354.439 96L347.97 89.5303C347.703 89.2641 347.679 88.8474 347.897 88.5538L347.97 88.4697C348.236 88.2034 348.653 88.1792 348.946 88.3971L349.03 88.4697L356.03 95.4697C356.297 95.7359 356.321 96.1526 356.103 96.4462L356.03 96.5303L349.03 103.53C348.737 103.823 348.263 103.823 347.97 103.53Z" fill="black"/>
<path d="M231.53 36.0303C231.264 36.2966 230.847 36.3208 230.554 36.1029L230.47 36.0303L224 29.561L217.53 36.0303C217.264 36.2966 216.847 36.3208 216.554 36.1029L216.47 36.0303C216.203 35.7641 216.179 35.3474 216.397 35.0538L216.47 34.9697L223.47 27.9697C223.736 27.7034 224.153 27.6792 224.446 27.8971L224.53 27.9697L231.53 34.9697C231.823 35.2626 231.823 35.7374 231.53 36.0303Z" fill="black"/>
<path d="M292.03 88.4697C292.297 88.7359 292.321 89.1526 292.103 89.4462L292.03 89.5303L285.561 96L292.03 102.47C292.297 102.736 292.321 103.153 292.103 103.446L292.03 103.53C291.764 103.797 291.347 103.821 291.054 103.603L290.97 103.53L283.97 96.5303C283.703 96.2641 283.679 95.8474 283.897 95.5538L283.97 95.4697L290.97 88.4697C291.263 88.1768 291.737 88.1768 292.03 88.4697Z" fill="black"/>
<path d="M216.47 91.9697C216.736 91.7034 217.153 91.6792 217.446 91.8971L217.53 91.9697L224 98.439L230.47 91.9697C230.736 91.7034 231.153 91.6792 231.446 91.8971L231.53 91.9697C231.797 92.2359 231.821 92.6526 231.603 92.9462L231.53 93.0303L224.53 100.03C224.264 100.297 223.847 100.321 223.554 100.103L223.47 100.03L216.47 93.0303C216.177 92.7374 216.177 92.2626 216.47 91.9697Z" fill="black"/>
</svg>
